<svg width="25" height="24" viewBox="0 0 25 24" fill="none" xmlns="http://www.w3.org/2000/svg">
<path d="M6.86816 10H8.86816C9.3986 10 9.9073 10.2107 10.2824 10.5858C10.6574 10.9609 10.8682 11.4696 10.8682 12V17H7.86816C7.33773 17 6.82902 16.7893 6.45395 16.4142C6.07888 16.0391 5.86816 15.5304 5.86816 15C5.86816 14.4696 6.07888 13.9609 6.45395 13.5858C6.82902 13.2107 7.33773 13 7.86816 13H10.8682M19.8682 7H16.8682C16.3377 7 15.829 7.21071 15.454 7.58579C15.0789 7.96086 14.8682 8.46957 14.8682 9V15C14.8682 15.5304 15.0789 16.0391 15.454 16.4142C15.829 16.7893 16.3377 17 16.8682 17H17.8682C18.3986 17 18.9073 16.7893 19.2824 16.4142C19.6574 16.0391 19.8682 15.5304 19.8682 15V12C19.8682 11.4696 19.6574 10.9609 19.2824 10.5858C18.9073 10.2107 18.3986 10 17.8682 10H14.8682" stroke="black" stroke-width="2" stroke-linecap="round" stroke-linejoin="round"/>
</svg>
