<svg width="48" height="49" viewBox="0 0 48 49" fill="none" xmlns="http://www.w3.org/2000/svg">
<path d="M10 20.4788C10 24.1918 11.475 27.7527 14.1005 30.3783C16.726 33.0038 20.287 34.4788 24 34.4788M24 34.4788C27.713 34.4788 31.274 33.0038 33.8995 30.3783C36.525 27.7527 38 24.1918 38 20.4788M24 34.4788V42.4788M16 42.4788H32M18 10.4788C18 8.88746 18.6321 7.36134 19.7574 6.23612C20.8826 5.1109 22.4087 4.47876 24 4.47876C25.5913 4.47876 27.1174 5.1109 28.2426 6.23612C29.3679 7.36134 30 8.88746 30 10.4788V20.4788C30 22.0701 29.3679 23.5962 28.2426 24.7214C27.1174 25.8466 25.5913 26.4788 24 26.4788C22.4087 26.4788 20.8826 25.8466 19.7574 24.7214C18.6321 23.5962 18 22.0701 18 20.4788V10.4788Z" stroke="#007BFF" stroke-width="4" stroke-linecap="round" stroke-linejoin="round"/>
</svg>
