<svg width="48" height="49" viewBox="0 0 48 49" fill="none" xmlns="http://www.w3.org/2000/svg">
<path d="M13.7733 20.4929V16.7839C13.7733 11.1308 18.3526 6.54932 23.9994 6.54932C29.6462 6.54932 34.2255 11.1308 34.2255 16.7839V20.4929M7.6377 24.4768C7.6377 23.4202 8.06865 22.4069 8.83575 21.6598C9.60286 20.9127 10.6433 20.4929 11.7281 20.4929H36.2707C37.3555 20.4929 38.396 20.9127 39.1631 21.6598C39.9302 22.4069 40.3611 23.4202 40.3611 24.4768V38.4205C40.3611 39.4771 39.9302 40.4904 39.1631 41.2375C38.396 41.9846 37.3555 42.4044 36.2707 42.4044H11.7281C10.6433 42.4044 9.60286 41.9846 8.83575 41.2375C8.06865 40.4904 7.6377 39.4771 7.6377 38.4205V24.4768Z" stroke="#007BFF" stroke-width="4" stroke-linecap="round" stroke-linejoin="round"/>
</svg>
