<svg width="48" height="49" viewBox="0 0 48 49" fill="none" xmlns="http://www.w3.org/2000/svg">
<path d="M28 34.4778H40M34 28.4778V40.4778M8 10.4778C8 9.94735 8.21071 9.43864 8.58579 9.06357C8.96086 8.6885 9.46957 8.47778 10 8.47778H18C18.5304 8.47778 19.0391 8.6885 19.4142 9.06357C19.7893 9.43864 20 9.94735 20 10.4778V18.4778C20 19.0082 19.7893 19.5169 19.4142 19.892C19.0391 20.2671 18.5304 20.4778 18 20.4778H10C9.46957 20.4778 8.96086 20.2671 8.58579 19.892C8.21071 19.5169 8 19.0082 8 18.4778V10.4778ZM28 10.4778C28 9.94735 28.2107 9.43864 28.5858 9.06357C28.9609 8.6885 29.4696 8.47778 30 8.47778H38C38.5304 8.47778 39.0391 8.6885 39.4142 9.06357C39.7893 9.43864 40 9.94735 40 10.4778V18.4778C40 19.0082 39.7893 19.5169 39.4142 19.892C39.0391 20.2671 38.5304 20.4778 38 20.4778H30C29.4696 20.4778 28.9609 20.2671 28.5858 19.892C28.2107 19.5169 28 19.0082 28 18.4778V10.4778ZM8 30.4778C8 29.9474 8.21071 29.4386 8.58579 29.0636C8.96086 28.6885 9.46957 28.4778 10 28.4778H18C18.5304 28.4778 19.0391 28.6885 19.4142 29.0636C19.7893 29.4386 20 29.9474 20 30.4778V38.4778C20 39.0082 19.7893 39.5169 19.4142 39.892C19.0391 40.2671 18.5304 40.4778 18 40.4778H10C9.46957 40.4778 8.96086 40.2671 8.58579 39.892C8.21071 39.5169 8 39.0082 8 38.4778V30.4778Z" stroke="#007BFF" stroke-width="4" stroke-linecap="round" stroke-linejoin="round"/>
</svg>
