<svg width="48" height="49" viewBox="0 0 48 49" fill="none" xmlns="http://www.w3.org/2000/svg">
<path d="M12 18.4778H24M8 10.4778H16M12 10.4778V32.4778C12 33.0082 12.2107 33.5169 12.5858 33.892C12.9609 34.2671 13.4696 34.4778 14 34.4778H24M24 16.4778C24 15.9474 24.2107 15.4386 24.5858 15.0636C24.9609 14.6885 25.4696 14.4778 26 14.4778H38C38.5304 14.4778 39.0391 14.6885 39.4142 15.0636C39.7893 15.4386 40 15.9474 40 16.4778V20.4778C40 21.0082 39.7893 21.5169 39.4142 21.892C39.0391 22.2671 38.5304 22.4778 38 22.4778H26C25.4696 22.4778 24.9609 22.2671 24.5858 21.892C24.2107 21.5169 24 21.0082 24 20.4778V16.4778ZM24 32.4778C24 31.9474 24.2107 31.4386 24.5858 31.0636C24.9609 30.6885 25.4696 30.4778 26 30.4778H38C38.5304 30.4778 39.0391 30.6885 39.4142 31.0636C39.7893 31.4386 40 31.9474 40 32.4778V36.4778C40 37.0082 39.7893 37.5169 39.4142 37.892C39.0391 38.2671 38.5304 38.4778 38 38.4778H26C25.4696 38.4778 24.9609 38.2671 24.5858 37.892C24.2107 37.5169 24 37.0082 24 36.4778V32.4778Z" stroke="#007BFF" stroke-width="4" stroke-linecap="round" stroke-linejoin="round"/>
</svg>
