<svg width="48" height="49" viewBox="0 0 48 49" fill="none" xmlns="http://www.w3.org/2000/svg">
<path d="M24.0007 30.4788C20.8181 30.4788 17.7658 29.2145 15.5154 26.964C13.265 24.7136 12.0007 21.6614 12.0007 18.4788C12.0007 15.2962 13.265 12.2439 15.5154 9.99348C17.7658 7.74304 20.8181 6.47876 24.0007 6.47876C27.1833 6.47876 30.2355 7.74304 32.486 9.99348C34.7364 12.2439 36.0007 15.2962 36.0007 18.4788C36.0007 21.6614 34.7364 24.7136 32.486 26.964C30.2355 29.2145 27.1833 30.4788 24.0007 30.4788ZM24.0007 30.4788L30.8007 42.2588L33.9967 35.7928L41.1927 36.2568L34.3927 24.4788M13.6047 24.4788L6.80469 36.2588L14.0007 35.7928L17.1967 42.2568L23.9967 30.4788" stroke="#007BFF" stroke-width="4" stroke-linecap="round" stroke-linejoin="round"/>
</svg>
