<svg width="48" height="49" viewBox="0 0 48 49" fill="none" xmlns="http://www.w3.org/2000/svg">
<path d="M30 18.4768H30.02M33.11 8.16291L40.314 15.3669C40.8484 15.9012 41.2723 16.5356 41.5615 17.2337C41.8508 17.9319 41.9996 18.6802 41.9996 19.4359C41.9996 20.1916 41.8508 20.9399 41.5615 21.6381C41.2723 22.3362 40.8484 22.9706 40.314 23.5049L35.028 28.7909C34.4937 29.3253 33.8593 29.7492 33.1612 30.0384C32.463 30.3277 31.7147 30.4765 30.959 30.4765C30.2033 30.4765 29.455 30.3277 28.7568 30.0384C28.0587 29.7492 27.4243 29.3253 26.89 28.7909L26.288 28.1889L13.172 41.3049C12.5074 41.9694 11.6301 42.3786 10.694 42.4609L10.344 42.4769H8C7.51013 42.4768 7.03733 42.297 6.67126 41.9715C6.30519 41.646 6.07131 41.1974 6.014 40.7109L6 40.4769V38.1329C6.00023 37.1938 6.33087 36.2847 6.934 35.5649L7.172 35.3049L8 34.4769H12V30.4769H16V26.4769L20.288 22.1889L19.686 21.5869C19.1516 21.0526 18.7277 20.4182 18.4385 19.7201C18.1492 19.0219 18.0004 18.2736 18.0004 17.5179C18.0004 16.7622 18.1492 16.0139 18.4385 15.3157C18.7277 14.6176 19.1516 13.9832 19.686 13.4489L24.972 8.16291C25.5063 7.62851 26.1407 7.2046 26.8388 6.91538C27.537 6.62616 28.2853 6.47729 29.041 6.47729C29.7967 6.47729 30.545 6.62616 31.2432 6.91538C31.9413 7.2046 32.5757 7.62851 33.11 8.16291Z" stroke="#007BFF" stroke-width="4" stroke-linecap="round" stroke-linejoin="round"/>
</svg>
