<svg width="144" height="144" viewBox="0 0 144 144" fill="none" xmlns="http://www.w3.org/2000/svg">
<g id="clipboard-check">
<path id="Vector" d="M54 30H42C38.8174 30 35.7652 31.2643 33.5147 33.5147C31.2643 35.7652 30 38.8174 30 42V114C30 117.183 31.2643 120.235 33.5147 122.485C35.7652 124.736 38.8174 126 42 126H102C105.183 126 108.235 124.736 110.485 122.485C112.736 120.235 114 117.183 114 114V42C114 38.8174 112.736 35.7652 110.485 33.5147C108.235 31.2643 105.183 30 102 30H90M54 30C54 26.8174 55.2643 23.7652 57.5147 21.5147C59.7652 19.2643 62.8174 18 66 18H78C81.1826 18 84.2348 19.2643 86.4853 21.5147C88.7357 23.7652 90 26.8174 90 30M54 30C54 33.1826 55.2643 36.2348 57.5147 38.4853C59.7652 40.7357 62.8174 42 66 42H78C81.1826 42 84.2348 40.7357 86.4853 38.4853C88.7357 36.2348 90 33.1826 90 30M54 84L66 96L90 72" stroke="#007BFF" stroke-width="12" stroke-linecap="round" stroke-linejoin="round"/>
</g>
</svg>
