<svg width="25" height="24" viewBox="0 0 25 24" fill="none" xmlns="http://www.w3.org/2000/svg">
<path d="M12.3682 21H6.86816C6.33773 21 5.82902 20.7893 5.45395 20.4142C5.07888 20.0391 4.86816 19.5304 4.86816 19V7C4.86816 6.46957 5.07888 5.96086 5.45395 5.58579C5.82902 5.21071 6.33773 5 6.86816 5H18.8682C19.3986 5 19.9073 5.21071 20.2824 5.58579C20.6574 5.96086 20.8682 6.46957 20.8682 7V11.5M16.8682 3V7M8.86816 3V7M4.86816 11H20.8682M21.0681 20.2L22.8681 22M15.8682 18C15.8682 18.7956 16.1842 19.5587 16.7468 20.1213C17.3095 20.6839 18.0725 21 18.8682 21C19.6638 21 20.4269 20.6839 20.9895 20.1213C21.5521 19.5587 21.8682 18.7956 21.8682 18C21.8682 17.2044 21.5521 16.4413 20.9895 15.8787C20.4269 15.3161 19.6638 15 18.8682 15C18.0725 15 17.3095 15.3161 16.7468 15.8787C16.1842 16.4413 15.8682 17.2044 15.8682 18Z" stroke="black" stroke-width="2" stroke-linecap="round" stroke-linejoin="round"/>
</svg>
