<svg width="24" height="25" viewBox="0 0 24 25" fill="none" xmlns="http://www.w3.org/2000/svg">
<path d="M7 7.82239H6C5.46957 7.82239 4.96086 8.0331 4.58579 8.40817C4.21071 8.78325 4 9.29195 4 9.82239V18.8224C4 19.3528 4.21071 19.8615 4.58579 20.2366C4.96086 20.6117 5.46957 20.8224 6 20.8224H15C15.5304 20.8224 16.0391 20.6117 16.4142 20.2366C16.7893 19.8615 17 19.3528 17 18.8224V17.8224M16 5.82239L19 8.82239M20.385 7.40737C20.7788 7.01353 21.0001 6.47936 21.0001 5.92237C21.0001 5.36539 20.7788 4.83122 20.385 4.43737C19.9912 4.04353 19.457 3.82227 18.9 3.82227C18.343 3.82227 17.8088 4.04353 17.415 4.43737L9 12.8224V15.8224H12L20.385 7.40737Z" stroke="#007BFF" stroke-width="2" stroke-linecap="round" stroke-linejoin="round"/>
</svg>
