<svg width="25" height="24" viewBox="0 0 25 24" fill="none" xmlns="http://www.w3.org/2000/svg">
<path d="M9.86816 15.0002L15.8682 9.00024M11.8682 6.00031L12.3312 5.46431C13.269 4.52663 14.5409 3.99991 15.867 4C17.1932 4.00009 18.465 4.527 19.4027 5.46481C20.3403 6.40261 20.8671 7.6745 20.867 9.00066C20.8669 10.3268 20.34 11.5986 19.4022 12.5363L18.8682 13.0003M13.8681 18.0002L13.4711 18.5342C12.5223 19.4724 11.2419 19.9986 9.90756 19.9986C8.57327 19.9986 7.29281 19.4724 6.34406 18.5342C5.87642 18.0718 5.50516 17.5213 5.25177 16.9144C4.99839 16.3075 4.86792 15.6564 4.86792 14.9987C4.86792 14.3411 4.99839 13.69 5.25177 13.0831C5.50516 12.4762 5.87642 11.9256 6.34406 11.4632L6.86806 11.0002" stroke="black" stroke-width="2" stroke-linecap="round" stroke-linejoin="round"/>
</svg>
