<svg width="24" height="24" viewBox="0 0 24 24" fill="none" xmlns="http://www.w3.org/2000/svg">
<path d="M9.86816 16H13.8682M8.86816 7L7.86816 3M14.8682 7L15.8682 3M6.86816 7H16.8682C17.3986 7 17.9073 7.21071 18.2824 7.58579C18.6574 7.96086 18.8682 8.46957 18.8682 9V10L19.8682 11V14L18.8682 15V18C18.8682 18.5304 18.6574 19.0391 18.2824 19.4142C17.9073 19.7893 17.3986 20 16.8682 20H6.86816C6.33773 20 5.82902 19.7893 5.45395 19.4142C5.07888 19.0391 4.86816 18.5304 4.86816 18V15L3.86816 14V11L4.86816 10V9C4.86816 8.46957 5.07888 7.96086 5.45395 7.58579C5.82902 7.21071 6.33773 7 6.86816 7ZM8.86816 11.5C8.86816 11.7761 8.64431 12 8.36816 12C8.09202 12 7.86816 11.7761 7.86816 11.5C7.86816 11.2239 8.09202 11 8.36816 11C8.64431 11 8.86816 11.2239 8.86816 11.5ZM15.8682 11.5C15.8682 11.7761 15.6443 12 15.3682 12C15.092 12 14.8682 11.7761 14.8682 11.5C14.8682 11.2239 15.092 11 15.3682 11C15.6443 11 15.8682 11.2239 15.8682 11.5Z" stroke="black" stroke-width="2" stroke-linecap="round" stroke-linejoin="round"/>
</svg>
