<svg width="46" height="45" viewBox="0 0 46 45" fill="none" xmlns="http://www.w3.org/2000/svg">
<path d="M13.9793 33.677C11.6609 33.677 9.43749 32.7961 7.79813 31.228C6.15878 29.6599 5.23779 27.5331 5.23779 25.3155C5.23779 23.0979 6.15878 20.9712 7.79813 19.4031C9.43749 17.835 11.6609 16.954 13.9793 16.954C14.5269 14.5147 16.1287 12.371 18.4325 10.9946C19.5732 10.313 20.8518 9.84037 22.1955 9.60358C23.5391 9.36679 24.9214 9.37051 26.2635 9.61452C27.6056 9.85853 28.8811 10.3381 30.0172 11.0257C31.1534 11.7134 32.1279 12.5957 32.8851 13.6223C33.6424 14.6489 34.1676 15.7998 34.4307 17.009C34.6938 18.2183 34.6897 19.4624 34.4185 20.6703H36.2766C38.0014 20.6703 39.6556 21.3554 40.8752 22.5751C42.0948 23.7947 42.78 25.4488 42.78 27.1736C42.78 28.8984 42.0948 30.5526 40.8752 31.7722C39.6556 32.9918 38.0014 33.677 36.2766 33.677H34.4185M17.6956 28.1028L23.27 22.5285M23.27 22.5285L28.8443 28.1028M23.27 22.5285V39.2514" stroke="#121212" stroke-width="2" stroke-linecap="round" stroke-linejoin="round"/>
</svg>
